<svg width="50mm" height="50mm" version="1.1" viewBox="0 0 50 50" xmlns="http://www.w3.org/2000/svg">
 <g transform="translate(0,-247)">
  <path d="m4.5606 272.44c0.9087 0 8.1389 0.15155 8.1389 0.15155 2.7261 0.75727 3.0835 5.2039 6.5237 9.0712 3.7995 4.2711 1.6856 7.8039 2.7502 11.606 1.673 2.7377 4.8115 0.73127 6.0966-0.55379 1.2851-1.2851 2.6944-4.352 1.4093-8.2073-1.2851-3.8553-1.0082-6.8754 0.50632-7.9355 3.4834-1.8174 11.676 1.2696 14.789-1.8434 6.2371-6.075 3.7964-18.63-1.363-21.946-6.7762-3.2071-18.048-3.0246-25.758-0.45438-7.7106 2.5702-12.968 1.9904-12.968 1.9904-3.029 2.1203-2.5487 14.638-0.12547 18.121z" fill="#f00" stroke="#ff3700" stroke-width=".42406px"/>
 </g>
</svg>
