{
	"asset":{
		"generator":"Khronos glTF Blender I/O v4.5.47",
		"version":"2.0"
	},
	"scene":0,
	"scenes":[
		{
			"name":"Scene",
			"nodes":[
				0,
				1,
				2,
				3,
				4,
				5,
				6,
				7,
				8,
				9,
				10,
				11,
				12,
				13,
				14,
				15,
				16,
				17
			]
		}
	],
	"nodes":[
		{
			"mesh":0,
			"name":"map.osm_buildings"
		},
		{
			"mesh":1,
			"name":"map.osm_areas_pedestrian"
		},
		{
			"name":"map.osm_roads_pedestrian",
			"translation":[
				0,
				0.30000001192092896,
				0
			]
		},
		{
			"name":"map.osm_roads_residential",
			"translation":[
				0,
				0.30000001192092896,
				0
			]
		},
		{
			"name":"map.osm_roads_primary",
			"translation":[
				0,
				0.30000001192092896,
				0
			]
		},
		{
			"name":"map.osm_roads_tertiary",
			"translation":[
				0,
				0.30000001192092896,
				0
			]
		},
		{
			"name":"map.osm_paths_footway",
			"translation":[
				0,
				0.30000001192092896,
				0
			]
		},
		{
			"mesh":2,
			"name":"map.osm_water",
			"translation":[
				0,
				0.20000000298023224,
				0
			]
		},
		{
			"mesh":3,
			"name":"map.osm_vegetation"
		},
		{
			"name":"map.osm_paths_steps",
			"translation":[
				0,
				0.30000001192092896,
				0
			]
		},
		{
			"name":"map.osm_paths_cycleway",
			"translation":[
				0,
				0.30000001192092896,
				0
			]
		},
		{
			"name":"profile_roads_primary",
			"translation":[
				0,
				0,
				-13.23994255065918
			]
		},
		{
			"name":"profile_roads_tertiary",
			"translation":[
				0,
				0,
				-10.411212921142578
			]
		},
		{
			"name":"profile_roads_residential",
			"translation":[
				0,
				0,
				-6.9708662033081055
			]
		},
		{
			"name":"profile_paths_footway",
			"translation":[
				0,
				0,
				-4.489185333251953
			]
		},
		{
			"name":"profile_roads_pedestrian",
			"translation":[
				0,
				0,
				-2.479302167892456
			]
		},
		{
			"name":"profile_paths_steps",
			"translation":[
				0,
				0,
				-0.9678186178207397
			]
		},
		{
			"name":"profile_paths_cycleway",
			"translation":[
				0,
				0,
				-0.2683899998664856
			]
		}
	],
	"materials":[
		{
			"doubleSided":true,
			"name":"wall",
			"pbrMetallicRoughness":{
				"baseColorFactor":[
					1,
					0.5,
					0.20000000298023224,
					1
				],
				"metallicFactor":0,
				"roughnessFactor":0.4000000059604645
			}
		},
		{
			"doubleSided":true,
			"name":"roof",
			"pbrMetallicRoughness":{
				"baseColorFactor":[
					0.28999999165534973,
					0.25,
					0.20999999344348907,
					1
				],
				"metallicFactor":0,
				"roughnessFactor":0.4000000059604645
			}
		},
		{
			"doubleSided":true,
			"name":"areas_pedestrian",
			"pbrMetallicRoughness":{
				"baseColorFactor":[
					0.08649999648332596,
					0.09084200114011765,
					0.0886560007929802,
					1
				],
				"metallicFactor":0,
				"roughnessFactor":0.4000000059604645
			}
		},
		{
			"doubleSided":true,
			"name":"water",
			"pbrMetallicRoughness":{
				"baseColorFactor":[
					0.008999999612569809,
					0.0020000000949949026,
					0.800000011920929,
					1
				],
				"metallicFactor":0,
				"roughnessFactor":0.4000000059604645
			}
		},
		{
			"doubleSided":true,
			"name":"vegetation",
			"pbrMetallicRoughness":{
				"baseColorFactor":[
					0.007000000216066837,
					0.5580000281333923,
					0.004999999888241291,
					1
				],
				"metallicFactor":0,
				"roughnessFactor":0.4000000059604645
			}
		}
	],
	"meshes":[
		{
			"name":"map.osm_buildings",
			"primitives":[
				{
					"attributes":{
						"POSITION":0,
						"NORMAL":1,
						"TEXCOORD_0":2,
						"TEXCOORD_1":3,
						"COLOR_0":4,
						"COLOR_1":5
					},
					"indices":6,
					"material":0
				},
				{
					"attributes":{
						"POSITION":7,
						"NORMAL":8,
						"TEXCOORD_0":9,
						"TEXCOORD_1":10,
						"COLOR_0":11,
						"COLOR_1":12
					},
					"indices":13,
					"material":1
				}
			]
		},
		{
			"name":"map.osm_areas_pedestrian",
			"primitives":[
				{
					"attributes":{
						"POSITION":14,
						"NORMAL":15
					},
					"indices":16,
					"material":2
				}
			]
		},
		{
			"name":"map.osm_water",
			"primitives":[
				{
					"attributes":{
						"POSITION":17,
						"NORMAL":18
					},
					"indices":19,
					"material":3
				}
			]
		},
		{
			"name":"map.osm_vegetation",
			"primitives":[
				{
					"attributes":{
						"POSITION":20,
						"NORMAL":21
					},
					"indices":22,
					"material":4
				}
			]
		}
	],
	"accessors":[
		{
			"bufferView":0,
			"componentType":5126,
			"count":1790,
			"max":[
				422.1471862792969,
				53.64252471923828,
				269.2265625
			],
			"min":[
				-394.6970520019531,
				0,
				-227.3250274658203
			],
			"type":"VEC3"
		},
		{
			"bufferView":1,
			"componentType":5126,
			"count":1790,
			"type":"VEC3"
		},
		{
			"bufferView":2,
			"componentType":5126,
			"count":1790,
			"type":"VEC2"
		},
		{
			"bufferView":3,
			"componentType":5126,
			"count":1790,
			"type":"VEC2"
		},
		{
			"bufferView":4,
			"componentType":5121,
			"count":1790,
			"normalized":true,
			"type":"VEC4"
		},
		{
			"bufferView":5,
			"componentType":5123,
			"count":1790,
			"normalized":true,
			"type":"VEC4"
		},
		{
			"bufferView":6,
			"componentType":5123,
			"count":2694,
			"type":"SCALAR"
		},
		{
			"bufferView":7,
			"componentType":5126,
			"count":2928,
			"max":[
				422.1471862792969,
				53.64252471923828,
				269.2265625
			],
			"min":[
				-394.6970520019531,
				3,
				-227.3250274658203
			],
			"type":"VEC3"
		},
		{
			"bufferView":8,
			"componentType":5126,
			"count":2928,
			"type":"VEC3"
		},
		{
			"bufferView":9,
			"componentType":5126,
			"count":2928,
			"type":"VEC2"
		},
		{
			"bufferView":10,
			"componentType":5126,
			"count":2928,
			"type":"VEC2"
		},
		{
			"bufferView":11,
			"componentType":5121,
			"count":2928,
			"normalized":true,
			"type":"VEC4"
		},
		{
			"bufferView":12,
			"componentType":5123,
			"count":2928,
			"normalized":true,
			"type":"VEC4"
		},
		{
			"bufferView":13,
			"componentType":5123,
			"count":7947,
			"type":"SCALAR"
		},
		{
			"bufferView":14,
			"componentType":5126,
			"count":522,
			"max":[
				357.47991943359375,
				0,
				240.95359802246094
			],
			"min":[
				-327.48822021484375,
				0,
				-275.0569152832031
			],
			"type":"VEC3"
		},
		{
			"bufferView":15,
			"componentType":5126,
			"count":522,
			"type":"VEC3"
		},
		{
			"bufferView":16,
			"componentType":5123,
			"count":1404,
			"type":"SCALAR"
		},
		{
			"bufferView":17,
			"componentType":5126,
			"count":24,
			"max":[
				-11.115025520324707,
				0,
				38.56114196777344
			],
			"min":[
				-191.94754028320312,
				0,
				-36.45712661743164
			],
			"type":"VEC3"
		},
		{
			"bufferView":18,
			"componentType":5126,
			"count":24,
			"type":"VEC3"
		},
		{
			"bufferView":19,
			"componentType":5123,
			"count":54,
			"type":"SCALAR"
		},
		{
			"bufferView":20,
			"componentType":5126,
			"count":13,
			"max":[
				-12.349987030029297,
				0,
				14.705334663391113
			],
			"min":[
				-30.01042938232422,
				0,
				-11.56607437133789
			],
			"type":"VEC3"
		},
		{
			"bufferView":21,
			"componentType":5126,
			"count":13,
			"type":"VEC3"
		},
		{
			"bufferView":22,
			"componentType":5123,
			"count":33,
			"type":"SCALAR"
		}
	],
	"bufferViews":[
		{
			"buffer":0,
			"byteLength":21480,
			"byteOffset":0,
			"target":34962
		},
		{
			"buffer":0,
			"byteLength":21480,
			"byteOffset":21480,
			"target":34962
		},
		{
			"buffer":0,
			"byteLength":14320,
			"byteOffset":42960,
			"target":34962
		},
		{
			"buffer":0,
			"byteLength":14320,
			"byteOffset":57280,
			"target":34962
		},
		{
			"buffer":0,
			"byteLength":7160,
			"byteOffset":71600,
			"target":34962
		},
		{
			"buffer":0,
			"byteLength":14320,
			"byteOffset":78760,
			"target":34962
		},
		{
			"buffer":0,
			"byteLength":5388,
			"byteOffset":93080,
			"target":34963
		},
		{
			"buffer":0,
			"byteLength":35136,
			"byteOffset":98468,
			"target":34962
		},
		{
			"buffer":0,
			"byteLength":35136,
			"byteOffset":133604,
			"target":34962
		},
		{
			"buffer":0,
			"byteLength":23424,
			"byteOffset":168740,
			"target":34962
		},
		{
			"buffer":0,
			"byteLength":23424,
			"byteOffset":192164,
			"target":34962
		},
		{
			"buffer":0,
			"byteLength":11712,
			"byteOffset":215588,
			"target":34962
		},
		{
			"buffer":0,
			"byteLength":23424,
			"byteOffset":227300,
			"target":34962
		},
		{
			"buffer":0,
			"byteLength":15894,
			"byteOffset":250724,
			"target":34963
		},
		{
			"buffer":0,
			"byteLength":6264,
			"byteOffset":266620,
			"target":34962
		},
		{
			"buffer":0,
			"byteLength":6264,
			"byteOffset":272884,
			"target":34962
		},
		{
			"buffer":0,
			"byteLength":2808,
			"byteOffset":279148,
			"target":34963
		},
		{
			"buffer":0,
			"byteLength":288,
			"byteOffset":281956,
			"target":34962
		},
		{
			"buffer":0,
			"byteLength":288,
			"byteOffset":282244,
			"target":34962
		},
		{
			"buffer":0,
			"byteLength":108,
			"byteOffset":282532,
			"target":34963
		},
		{
			"buffer":0,
			"byteLength":156,
			"byteOffset":282640,
			"target":34962
		},
		{
			"buffer":0,
			"byteLength":156,
			"byteOffset":282796,
			"target":34962
		},
		{
			"buffer":0,
			"byteLength":66,
			"byteOffset":282952,
			"target":34963
		}
	],
	"buffers":[
		{
			"byteLength":283020,
			"uri":"Centro2.bin"
		}
	]
}
