{
	"asset":{
		"generator":"Khronos glTF Blender I/O v4.5.47",
		"version":"2.0"
	},
	"scene":0,
	"scenes":[
		{
			"name":"Scene",
			"nodes":[
				0,
				1,
				2,
				3,
				4,
				5,
				6,
				7,
				8,
				9,
				10,
				11,
				12,
				13,
				14,
				15,
				16,
				17,
				18,
				19,
				20,
				21
			]
		}
	],
	"nodes":[
		{
			"mesh":0,
			"name":"map.osm_buildings"
		},
		{
			"mesh":1,
			"name":"map.osm_areas_pedestrian"
		},
		{
			"mesh":2,
			"name":"map.osm_water",
			"translation":[
				0,
				0.20000000298023224,
				0
			]
		},
		{
			"mesh":3,
			"name":"map.osm_vegetation"
		},
		{
			"name":"map.osm_roads_primary",
			"translation":[
				0,
				0.30000001192092896,
				0
			]
		},
		{
			"name":"map.osm_roads_pedestrian",
			"translation":[
				0,
				0.30000001192092896,
				0
			]
		},
		{
			"name":"map.osm_roads_residential",
			"translation":[
				0,
				0.30000001192092896,
				0
			]
		},
		{
			"name":"map.osm_roads_secondary",
			"translation":[
				0,
				0.30000001192092896,
				0
			]
		},
		{
			"name":"map.osm_roads_tertiary",
			"translation":[
				0,
				0.30000001192092896,
				0
			]
		},
		{
			"name":"map.osm_roads_service",
			"translation":[
				0,
				0.30000001192092896,
				0
			]
		},
		{
			"name":"map.osm_paths_footway",
			"translation":[
				0,
				0.30000001192092896,
				0
			]
		},
		{
			"name":"map.osm_paths_cycleway",
			"translation":[
				0,
				0.30000001192092896,
				0
			]
		},
		{
			"name":"map.osm_paths_steps",
			"translation":[
				0,
				0.30000001192092896,
				0
			]
		},
		{
			"name":"profile_roads_primary",
			"translation":[
				0,
				0,
				-13.23994255065918
			]
		},
		{
			"name":"profile_roads_secondary",
			"translation":[
				0,
				0,
				-11.940256118774414
			]
		},
		{
			"name":"profile_roads_tertiary",
			"translation":[
				0,
				0,
				-10.411212921142578
			]
		},
		{
			"name":"profile_roads_residential",
			"translation":[
				0,
				0,
				-6.9708662033081055
			]
		},
		{
			"name":"profile_paths_footway",
			"translation":[
				0,
				0,
				-4.489185333251953
			]
		},
		{
			"name":"profile_roads_service",
			"translation":[
				0,
				0,
				-3.567683458328247
			]
		},
		{
			"name":"profile_roads_pedestrian",
			"translation":[
				0,
				0,
				-2.479302167892456
			]
		},
		{
			"name":"profile_paths_steps",
			"translation":[
				0,
				0,
				-0.9678186178207397
			]
		},
		{
			"name":"profile_paths_cycleway",
			"translation":[
				0,
				0,
				-0.2683899998664856
			]
		}
	],
	"materials":[
		{
			"doubleSided":true,
			"name":"wall",
			"pbrMetallicRoughness":{
				"baseColorFactor":[
					1,
					0.5,
					0.20000000298023224,
					1
				],
				"metallicFactor":0,
				"roughnessFactor":0.4000000059604645
			}
		},
		{
			"doubleSided":true,
			"name":"roof",
			"pbrMetallicRoughness":{
				"baseColorFactor":[
					0.28999999165534973,
					0.25,
					0.20999999344348907,
					1
				],
				"metallicFactor":0,
				"roughnessFactor":0.4000000059604645
			}
		},
		{
			"doubleSided":true,
			"name":"ff96bb",
			"pbrMetallicRoughness":{
				"baseColorFactor":[
					1,
					0.5882353186607361,
					0.7333333492279053,
					1
				],
				"metallicFactor":0,
				"roughnessFactor":0.4000000059604645
			}
		},
		{
			"doubleSided":true,
			"name":"areas_pedestrian",
			"pbrMetallicRoughness":{
				"baseColorFactor":[
					0.08649999648332596,
					0.09084200114011765,
					0.0886560007929802,
					1
				],
				"metallicFactor":0,
				"roughnessFactor":0.4000000059604645
			}
		},
		{
			"doubleSided":true,
			"name":"water",
			"pbrMetallicRoughness":{
				"baseColorFactor":[
					0.008999999612569809,
					0.0020000000949949026,
					0.800000011920929,
					1
				],
				"metallicFactor":0,
				"roughnessFactor":0.4000000059604645
			}
		},
		{
			"doubleSided":true,
			"name":"vegetation",
			"pbrMetallicRoughness":{
				"baseColorFactor":[
					0.007000000216066837,
					0.5580000281333923,
					0.004999999888241291,
					1
				],
				"metallicFactor":0,
				"roughnessFactor":0.4000000059604645
			}
		}
	],
	"meshes":[
		{
			"name":"map.osm_buildings",
			"primitives":[
				{
					"attributes":{
						"POSITION":0,
						"NORMAL":1,
						"TEXCOORD_0":2,
						"TEXCOORD_1":3,
						"COLOR_0":4,
						"COLOR_1":5
					},
					"indices":6,
					"material":0
				},
				{
					"attributes":{
						"POSITION":7,
						"NORMAL":8,
						"TEXCOORD_0":9,
						"TEXCOORD_1":10,
						"COLOR_0":11,
						"COLOR_1":12
					},
					"indices":13,
					"material":1
				},
				{
					"attributes":{
						"POSITION":14,
						"NORMAL":15,
						"TEXCOORD_0":16,
						"TEXCOORD_1":17,
						"COLOR_0":18,
						"COLOR_1":19
					},
					"indices":20,
					"material":2
				}
			]
		},
		{
			"name":"map.osm_areas_pedestrian",
			"primitives":[
				{
					"attributes":{
						"POSITION":21,
						"NORMAL":22
					},
					"indices":23,
					"material":3
				}
			]
		},
		{
			"name":"map.osm_water",
			"primitives":[
				{
					"attributes":{
						"POSITION":24,
						"NORMAL":25
					},
					"indices":26,
					"material":4
				}
			]
		},
		{
			"name":"map.osm_vegetation",
			"primitives":[
				{
					"attributes":{
						"POSITION":27,
						"NORMAL":28
					},
					"indices":29,
					"material":5
				}
			]
		}
	],
	"accessors":[
		{
			"bufferView":0,
			"componentType":5126,
			"count":7232,
			"max":[
				717.1243896484375,
				110,
				518.6231689453125
			],
			"min":[
				-679.1994018554688,
				0,
				-488.4896240234375
			],
			"type":"VEC3"
		},
		{
			"bufferView":1,
			"componentType":5126,
			"count":7232,
			"type":"VEC3"
		},
		{
			"bufferView":2,
			"componentType":5126,
			"count":7232,
			"type":"VEC2"
		},
		{
			"bufferView":3,
			"componentType":5126,
			"count":7232,
			"type":"VEC2"
		},
		{
			"bufferView":4,
			"componentType":5121,
			"count":7232,
			"normalized":true,
			"type":"VEC4"
		},
		{
			"bufferView":5,
			"componentType":5123,
			"count":7232,
			"normalized":true,
			"type":"VEC4"
		},
		{
			"bufferView":6,
			"componentType":5123,
			"count":10908,
			"type":"SCALAR"
		},
		{
			"bufferView":7,
			"componentType":5126,
			"count":4893,
			"max":[
				717.1243896484375,
				110,
				518.6231689453125
			],
			"min":[
				-679.1994018554688,
				3,
				-488.4896240234375
			],
			"type":"VEC3"
		},
		{
			"bufferView":8,
			"componentType":5126,
			"count":4893,
			"type":"VEC3"
		},
		{
			"bufferView":9,
			"componentType":5126,
			"count":4893,
			"type":"VEC2"
		},
		{
			"bufferView":10,
			"componentType":5126,
			"count":4893,
			"type":"VEC2"
		},
		{
			"bufferView":11,
			"componentType":5121,
			"count":4893,
			"normalized":true,
			"type":"VEC4"
		},
		{
			"bufferView":12,
			"componentType":5123,
			"count":4893,
			"normalized":true,
			"type":"VEC4"
		},
		{
			"bufferView":13,
			"componentType":5123,
			"count":12417,
			"type":"SCALAR"
		},
		{
			"bufferView":14,
			"componentType":5126,
			"count":124,
			"max":[
				-456.8638000488281,
				10.887093544006348,
				360.1287841796875
			],
			"min":[
				-480.3847961425781,
				0,
				336.59613037109375
			],
			"type":"VEC3"
		},
		{
			"bufferView":15,
			"componentType":5126,
			"count":124,
			"type":"VEC3"
		},
		{
			"bufferView":16,
			"componentType":5126,
			"count":124,
			"type":"VEC2"
		},
		{
			"bufferView":17,
			"componentType":5126,
			"count":124,
			"type":"VEC2"
		},
		{
			"bufferView":18,
			"componentType":5121,
			"count":124,
			"normalized":true,
			"type":"VEC4"
		},
		{
			"bufferView":19,
			"componentType":5123,
			"count":124,
			"normalized":true,
			"type":"VEC4"
		},
		{
			"bufferView":20,
			"componentType":5123,
			"count":186,
			"type":"SCALAR"
		},
		{
			"bufferView":21,
			"componentType":5126,
			"count":1246,
			"max":[
				509.4982604980469,
				0,
				426.82806396484375
			],
			"min":[
				-532.98974609375,
				0,
				-528.8764038085938
			],
			"type":"VEC3"
		},
		{
			"bufferView":22,
			"componentType":5126,
			"count":1246,
			"type":"VEC3"
		},
		{
			"bufferView":23,
			"componentType":5123,
			"count":3516,
			"type":"SCALAR"
		},
		{
			"bufferView":24,
			"componentType":5126,
			"count":334,
			"max":[
				91.34271240234375,
				0,
				1991.7469482421875
			],
			"min":[
				-2094.61572265625,
				0,
				-1233.9947509765625
			],
			"type":"VEC3"
		},
		{
			"bufferView":25,
			"componentType":5126,
			"count":334,
			"type":"VEC3"
		},
		{
			"bufferView":26,
			"componentType":5123,
			"count":942,
			"type":"SCALAR"
		},
		{
			"bufferView":27,
			"componentType":5126,
			"count":180,
			"max":[
				90.10740661621094,
				0,
				326.9219970703125
			],
			"min":[
				-526.120361328125,
				0,
				-104.79585266113281
			],
			"type":"VEC3"
		},
		{
			"bufferView":28,
			"componentType":5126,
			"count":180,
			"type":"VEC3"
		},
		{
			"bufferView":29,
			"componentType":5123,
			"count":468,
			"type":"SCALAR"
		}
	],
	"bufferViews":[
		{
			"buffer":0,
			"byteLength":86784,
			"byteOffset":0,
			"target":34962
		},
		{
			"buffer":0,
			"byteLength":86784,
			"byteOffset":86784,
			"target":34962
		},
		{
			"buffer":0,
			"byteLength":57856,
			"byteOffset":173568,
			"target":34962
		},
		{
			"buffer":0,
			"byteLength":57856,
			"byteOffset":231424,
			"target":34962
		},
		{
			"buffer":0,
			"byteLength":28928,
			"byteOffset":289280,
			"target":34962
		},
		{
			"buffer":0,
			"byteLength":57856,
			"byteOffset":318208,
			"target":34962
		},
		{
			"buffer":0,
			"byteLength":21816,
			"byteOffset":376064,
			"target":34963
		},
		{
			"buffer":0,
			"byteLength":58716,
			"byteOffset":397880,
			"target":34962
		},
		{
			"buffer":0,
			"byteLength":58716,
			"byteOffset":456596,
			"target":34962
		},
		{
			"buffer":0,
			"byteLength":39144,
			"byteOffset":515312,
			"target":34962
		},
		{
			"buffer":0,
			"byteLength":39144,
			"byteOffset":554456,
			"target":34962
		},
		{
			"buffer":0,
			"byteLength":19572,
			"byteOffset":593600,
			"target":34962
		},
		{
			"buffer":0,
			"byteLength":39144,
			"byteOffset":613172,
			"target":34962
		},
		{
			"buffer":0,
			"byteLength":24834,
			"byteOffset":652316,
			"target":34963
		},
		{
			"buffer":0,
			"byteLength":1488,
			"byteOffset":677152,
			"target":34962
		},
		{
			"buffer":0,
			"byteLength":1488,
			"byteOffset":678640,
			"target":34962
		},
		{
			"buffer":0,
			"byteLength":992,
			"byteOffset":680128,
			"target":34962
		},
		{
			"buffer":0,
			"byteLength":992,
			"byteOffset":681120,
			"target":34962
		},
		{
			"buffer":0,
			"byteLength":496,
			"byteOffset":682112,
			"target":34962
		},
		{
			"buffer":0,
			"byteLength":992,
			"byteOffset":682608,
			"target":34962
		},
		{
			"buffer":0,
			"byteLength":372,
			"byteOffset":683600,
			"target":34963
		},
		{
			"buffer":0,
			"byteLength":14952,
			"byteOffset":683972,
			"target":34962
		},
		{
			"buffer":0,
			"byteLength":14952,
			"byteOffset":698924,
			"target":34962
		},
		{
			"buffer":0,
			"byteLength":7032,
			"byteOffset":713876,
			"target":34963
		},
		{
			"buffer":0,
			"byteLength":4008,
			"byteOffset":720908,
			"target":34962
		},
		{
			"buffer":0,
			"byteLength":4008,
			"byteOffset":724916,
			"target":34962
		},
		{
			"buffer":0,
			"byteLength":1884,
			"byteOffset":728924,
			"target":34963
		},
		{
			"buffer":0,
			"byteLength":2160,
			"byteOffset":730808,
			"target":34962
		},
		{
			"buffer":0,
			"byteLength":2160,
			"byteOffset":732968,
			"target":34962
		},
		{
			"buffer":0,
			"byteLength":936,
			"byteOffset":735128,
			"target":34963
		}
	],
	"buffers":[
		{
			"byteLength":736064,
			"uri":"Centro.bin"
		}
	]
}
